<?xml version="1.0" encoding="UTF-8"?>
<svg xmlns="http://www.w3.org/2000/svg" xmlns:xlink="http://www.w3.org/1999/xlink" viewBox="0 0 48 48" width="48px" height="48px">
<g id="surface18346300">
<path style=" stroke:none;fill-rule:nonzero;fill:rgb(80.000001%,80.000001%,80.000001%);fill-opacity:1;" d="M 24 48 C 10.746094 48 0 37.253906 0 24 C 0 10.746094 10.746094 0 24 0 C 37.253906 0 48 10.746094 48 24 C 48 37.253906 37.253906 48 24 48 Z M 24 48 "/>
<path style=" stroke:none;fill-rule:nonzero;fill:rgb(0%,0%,0%);fill-opacity:1;" d="M 20.265625 8 L 19.480469 12.039062 C 18.164062 12.535156 16.953125 13.230469 15.890625 14.101562 L 12.011719 12.765625 L 8.273438 19.234375 L 11.382812 21.933594 C 11.261719 22.667969 11.199219 23.347656 11.199219 24 C 11.199219 24.652344 11.265625 25.332031 11.382812 26.066406 L 11.382812 26.070312 L 8.273438 28.769531 L 12.011719 35.234375 L 15.886719 33.898438 C 16.949219 34.773438 18.164062 35.464844 19.480469 35.960938 L 20.265625 40 L 27.734375 40 L 28.519531 35.960938 C 29.839844 35.464844 31.046875 34.769531 32.109375 33.898438 L 35.988281 35.234375 L 39.722656 28.769531 L 36.617188 26.066406 C 36.738281 25.332031 36.800781 24.652344 36.800781 24 C 36.800781 23.347656 36.738281 22.667969 36.617188 21.9375 L 36.617188 21.933594 L 39.726562 19.230469 L 35.988281 12.765625 L 32.113281 14.101562 C 31.050781 13.226562 29.835938 12.535156 28.519531 12.039062 L 27.734375 8 Z M 22.902344 11.199219 L 25.097656 11.199219 L 25.71875 14.398438 L 27.386719 15.03125 C 28.394531 15.410156 29.296875 15.929688 30.082031 16.574219 L 31.460938 17.707031 L 34.539062 16.648438 L 35.632812 18.546875 L 33.179688 20.683594 L 33.460938 22.445312 C 33.558594 23.046875 33.601562 23.550781 33.601562 24 C 33.601562 24.449219 33.558594 24.953125 33.460938 25.554688 L 33.175781 27.3125 L 35.632812 29.449219 L 34.535156 31.351562 L 31.460938 30.289062 L 30.078125 31.425781 C 29.292969 32.070312 28.394531 32.589844 27.386719 32.96875 L 27.382812 32.96875 L 25.714844 33.601562 L 25.09375 36.800781 L 22.902344 36.800781 L 22.28125 33.601562 L 20.613281 32.96875 C 19.605469 32.589844 18.703125 32.070312 17.917969 31.425781 L 16.539062 30.292969 L 13.460938 31.351562 L 12.367188 29.453125 L 14.824219 27.3125 L 14.539062 25.558594 L 14.539062 25.554688 C 14.445312 24.953125 14.398438 24.449219 14.398438 24 C 14.398438 23.550781 14.441406 23.046875 14.539062 22.445312 L 14.824219 20.6875 L 12.367188 18.550781 L 13.460938 16.648438 L 16.539062 17.710938 L 17.917969 16.574219 C 18.703125 15.929688 19.605469 15.410156 20.613281 15.03125 L 22.28125 14.398438 Z M 24 17.601562 C 20.484375 17.601562 17.601562 20.484375 17.601562 24 C 17.601562 27.515625 20.484375 30.398438 24 30.398438 C 27.515625 30.398438 30.398438 27.515625 30.398438 24 C 30.398438 20.484375 27.515625 17.601562 24 17.601562 Z M 24 20.800781 C 25.777344 20.800781 27.199219 22.222656 27.199219 24 C 27.199219 25.777344 25.777344 27.199219 24 27.199219 C 22.222656 27.199219 20.800781 25.777344 20.800781 24 C 20.800781 22.222656 22.222656 20.800781 24 20.800781 Z M 24 20.800781 "/>
</g>
</svg>
